<svg width="200" height="60" viewBox="0 0 200 60" fill="none" xmlns="http://www.w3.org/2000/svg">
    <!-- Symbol -->
    <g transform="translate(5, 7.5)">
        <!-- Circular improvement cycle -->
        <circle cx="22.5" cy="22.5" r="20" stroke="#E5A89D" stroke-width="2.5" stroke-dasharray="4 3"/>

        <!-- Neural network nodes suggesting AI -->
        <circle cx="22.5" cy="8" r="3" fill="#E5A89D"/>
        <circle cx="35" cy="16" r="2.5" fill="#E5A89D"/>
        <circle cx="38" cy="28" r="2.5" fill="#E5A89D"/>
        <circle cx="30" cy="38" r="2.5" fill="#E5A89D"/>
        <circle cx="15" cy="38" r="2.5" fill="#E5A89D"/>
        <circle cx="7" cy="28" r="2.5" fill="#E5A89D"/>
        <circle cx="10" cy="16" r="2.5" fill="#E5A89D"/>

        <!-- Connecting lines -->
        <line x1="22.5" y1="8" x2="35" y2="16" stroke="#E5A89D" stroke-width="1.5" opacity="0.4"/>
        <line x1="35" y1="16" x2="38" y2="28" stroke="#E5A89D" stroke-width="1.5" opacity="0.4"/>
        <line x1="38" y1="28" x2="30" y2="38" stroke="#E5A89D" stroke-width="1.5" opacity="0.4"/>
        <line x1="30" y1="38" x2="15" y2="38" stroke="#E5A89D" stroke-width="1.5" opacity="0.4"/>
        <line x1="15" y1="38" x2="7" y2="28" stroke="#E5A89D" stroke-width="1.5" opacity="0.4"/>
        <line x1="7" y1="28" x2="10" y2="16" stroke="#E5A89D" stroke-width="1.5" opacity="0.4"/>
        <line x1="10" y1="16" x2="22.5" y2="8" stroke="#E5A89D" stroke-width="1.5" opacity="0.4"/>

        <!-- Upward arrow indicating continuous improvement -->
        <path d="M 22.5 28 L 22.5 18 M 22.5 18 L 19 21.5 M 22.5 18 L 26 21.5" stroke="#F5F1EB" stroke-width="2.5" stroke-linecap="round" stroke-linejoin="round"/>
    </g>

    <!-- Text -->
    <text x="65" y="40" font-family="Fraunces, serif" font-size="28" font-weight="600" fill="#F5F1EB" letter-spacing="-0.02em">
        q<tspan fill="#E5A89D">AI</tspan>zn
    </text>
</svg>
